<?xml version="1.0" encoding="utf-8"?>
<!-- Generator: Adobe Illustrator 22.1.0, SVG Export Plug-In . SVG Version: 6.00 Build 0)  -->
<svg version="1.1" id="Vrstva_1" xmlns="http://www.w3.org/2000/svg" xmlns:xlink="http://www.w3.org/1999/xlink" x="0px" y="0px"
	 viewBox="0 0 806 806" style="enable-background:new 0 0 806 806;" xml:space="preserve">
<style type="text/css">
	.st0{fill:#303030;}
</style>
<path class="st0" d="M589.1,569.4c49.8-38.8,90.4-74.9,105.9-108.6c-29,18.4-48.6,26.5-74.9,33.2C619.3,516.3,612,543.2,589.1,569.4
	z"/>
<path class="st0" d="M619.8,480.2c53.4-48.4,76.1-94,106.4-154.9c4.5-9.1,9.2-18.5,14.2-28.3c-40.8,62-120.8,127.8-139.2,128
	c5,10.1,8.8,16.2,8.8,16.2S617.9,456.9,619.8,480.2z"/>
<path class="st0" d="M598.1,418.6c-13.4-29-30.4-80.2-7.8-118.2c8.8-16.3,19.5-29.7,29.9-42.8c19.8-24.8,38.4-48.1,39.8-86.2
	c0.3-9.1,0.1-17.8-0.7-26.1c17.9-24.5,24.4-51.5,25.1-99.4c0,0,50.5,135.4-24.4,237.1C615.2,344.1,601.2,403.2,598.1,418.6z"/>
<path class="st0" d="M121.9,46c0.7,47.9,7.3,74.9,25.1,99.4c-0.7,8.3-1,16.9-0.7,26.1c1.4,38.1,20,61.4,39.8,86.2
	c10.4,13.1,21.2,26.5,29.9,42.8c22.7,38,5.6,89.1-7.8,118.2c-3-15.4-17-74.5-62.1-135.6C71.3,181.4,121.9,46,121.9,46z"/>
<path class="st0" d="M66.1,297c40.8,62,120.8,127.8,139.2,128c-5,10.1-8.8,16.2-8.8,16.2s-8,15.7-9.8,38.9
	c-53.4-48.4-76.1-94-106.4-154.9C75.8,316.2,71.1,306.8,66.1,297z"/>
<path class="st0" d="M111.4,460.8c29,18.4,48.6,26.5,74.9,33.2c0.8,22.3,8.1,49.2,31,75.4C167.5,530.6,127,494.5,111.4,460.8z"/>
<path class="st0" d="M584.5,25.1c0.4,1.3,38.7,115.5-45.3,195.2c-38.6,36.6-60.3,73.5-81,108.8c-16.3,27.8-32,54.6-55,79.4
	c-22.9-24.8-38.7-51.6-55-79.4c-20.7-35.3-42.4-72.2-81-108.8c-84.1-79.7-45.8-193.9-45.3-195.2c-0.9,0.7-62.7,49.5-59.3,146.4
	c1.4,38.1,20,61.4,39.8,86.2c10.4,13.1,21.2,26.5,29.9,42.8c33.5,56-19.6,140.8-19.6,140.8s-43,84.8,47.8,152.9
	c50.9,38.2,53.4,66.2,55.6,90.8c1.7,19.3,3.3,36.5,27.8,54.9c55.8,41.8,59.3,41.8,59.3,41.8s3.5,0,59.3-41.8
	c24.5-18.4,26.1-35.6,27.8-54.9c2.2-24.6,4.7-52.6,55.6-90.8c90.8-68.1,47.8-152.9,47.8-152.9s-53.1-84.8-19.6-140.8
	c8.8-16.3,19.5-29.7,30-42.8c19.8-24.8,38.4-48.1,39.8-86.2C647.2,74.6,585.5,25.8,584.5,25.1z M263.8,474.8
	c-12.4-21.5-10.5-76.7-10.5-76.7s21,3.7,38,22c-5.9,22-3,35.7,3.9,46c0-3.5-0.1-6-0.3-8.3c-0.1-1.8-0.2-3.5-0.2-5.2
	c0-4.8,0.7-10.6,3.7-23.5c0.1,0.2,0.2,0.3,0.3,0.5c15.7,23.8,51.7,96.5,52.3,97.6C349.8,526.7,279.8,502.7,263.8,474.8z
	 M350.2,698.4c-1.7-5-3.5-10-6.3-14.5l31.4,41.8C358.2,721.5,354.3,710,350.2,698.4z M456.2,698.4c-4,11.6-8,23-25.1,27.3l31.4-41.8
	C459.7,688.4,458,693.5,456.2,698.4z M542.7,474.8c-16,27.9-86,51.9-87.1,52.3c0.6-1.1,36.6-73.8,52.3-97.6c0.1-0.2,0.2-0.3,0.3-0.5
	c4.1,17.8,3.8,22,3.5,28.8c-0.1,2.3-0.3,4.8-0.3,8.3c6.8-10.3,9.8-23.9,3.9-46c16.9-18.3,38-22,38-22S555,453.2,542.7,474.8z"/>
</svg>
